<?xml version="1.0" encoding="utf-8"?>
<!-- Generator: Adobe Illustrator 24.3.0, SVG Export Plug-In . SVG Version: 6.00 Build 0)  -->
<svg version="1.1" id="Layer_1" xmlns="http://www.w3.org/2000/svg" xmlns:xlink="http://www.w3.org/1999/xlink" x="0px" y="0px"
	 viewBox="0 0 236.99 245.94" style="enable-background:new 0 0 236.99 245.94;" xml:space="preserve">
<path d="M65.41,11.82c0.55-0.91,2-1.55,2.83-1.24c1.04,0.38,1.68,1.38,1.46,2.66c-0.67,3.88-1.46,7.75-2.14,11.63
	c-0.3,1.7-0.43,3.44-0.72,5.14c-0.7,4.13-1.45,8.26-2.18,12.39c-1.27,0.96-2.41,16.22-2.53,17.65c-0.2,2.42-0.51,4.84-0.76,7.26
	c-0.07,0.71-0.2,1.43-0.16,2.13c0.05,0.92,0.74,1.22,1.26,0.48c1.27-1.8,3.23-1.76,4.94-1.73c1.63,0.03,3.27,0.84,4.21,2.41
	c1.5,2.5,1.78,5.24,1.37,8.08c-0.14,0.97-0.25,1.94-0.47,2.89c-0.18,0.8-0.49,1.58-0.77,2.36c-0.11,0.3-0.36,0.57-0.42,0.88
	c-0.62,3.05-2.3,5.62-3.96,8.12c-1.95,2.94-4.13,5.76-6.54,8.34c-1.38,1.48-3.34,2.46-5.17,3.44c-0.6,0.32-1.76,0.2-2.33-0.19
	c-0.43-0.3-0.57-1.41-0.44-2.08c0.64-3.45,1.64-6.84,2.05-10.31c0.33-2.82,1.34-5.5,1.29-8.41c-0.04-2.25,0.55-4.5,0.84-6.76
	c0.73-5.71,1.47-11.42,2.15-17.13c0.35-2.9,0.5-5.82,0.88-8.72c0.28-2.18,0.86-4.31,1.17-6.49c0.65-4.63,1.21-9.28,1.82-13.92
	c0.08-0.64,0.28-1.27,0.36-1.92c0.37-3.28,0.7-6.57,1.07-9.85c0.11-0.96,0.39-1.92,0.41-2.88C64.94,15.23,65.05,12.42,65.41,11.82z
	 M58.21,96.67c0.17,0.04,0.33,0.08,0.5,0.12c0.16-0.1,0.35-0.18,0.48-0.32c3.7-4.02,6.96-8.35,9.22-13.35
	c1.21-2.68,1.47-5.5,0.59-8.37c-0.35-1.16-1.01-1.66-2.29-1.61c-2.46,0.1-4.95,2.1-5.48,4.58c-0.07,0.31-2.04,10.48-2.13,11.49
	C58.88,91.71,58.52,94.19,58.21,96.67z"/>
<path d="M37.24,196.78c0.17-2.43,0.36-4.86,0.59-7.28c0.07-0.73,0.39-1.43,0.49-2.16c0.19-1.37,0.37-2.74,0.44-4.12
	c0.19-3.73,1.18-7.32,1.84-10.97c0.37-2.07,0.91-4.32-0.62-6.33c-0.37-0.48-0.3-1.29-0.46-2.07c0.52-0.2,2.73-1.68,2.76-2.26
	c0.13-2.28,1.07-4.54,0.26-6.86c-0.1-0.28,0.06-0.65,0.11-0.98c0.25-2.08,0.56-4.15,0.74-6.23c0.13-1.47,0.18-2.91,0.76-4.33
	c0.39-0.98,0.64-2.13,0.55-3.16c-0.15-1.63,0.54-2.8,1.61-3.76c2.4-2.17,4.87-4.28,7.36-6.34c1.74-1.44,5.66-0.47,6.25,1.7
	c0.9,3.34-0.35,11.25-0.28,11.76c0.23,1.66-0.71,2.85-1.52,4.08c-0.66,0.99-2.31,4.21-2.44,4.41c-2.09,3.14-3.6,6.77-7.15,8.7
	c-0.11,0.06-3.01,3.35-3.68,5.37c-0.11,0.32-0.27,0.63-0.33,0.95c-0.68,3.37-1.35,6.75-2,10.13c-0.2,1.04-0.31,2.1-0.47,3.15
	c-0.31,1.94-0.66,3.86-0.92,5.81c-0.21,1.6-0.33,3.21-0.47,4.82c-0.37,4.18-0.49,8.41-1.19,12.54c-0.4,2.37-0.34,4.73-0.62,7.08
	c-0.33,2.88-0.78,5.75-1.08,8.64c-0.27,2.62-0.18,5.29-0.68,7.85c-0.29,1.51-0.5,3-0.63,4.52c-0.03,0.33-0.97,3.59-1.81,4.58
	c-0.83,0.97-2.46,0.47-2.62-0.81c-0.16-1.38,0.13-2.8,0.17-4.21C32.23,229.96,37.14,198.29,37.24,196.78z M46.69,158.1
	c0.15,0.1,0.3,0.2,0.45,0.3c0.42-0.33,0.89-0.61,1.24-1c0.44-0.5,0.79-1.07,1.14-1.63c1.2-1.96,2.42-3.91,3.56-5.91
	c0.5-0.88,0.68-1.95,1.24-2.78c2.23-3.3,2.45-6.92,1.86-10.68c-0.24-1.56-0.96-1.89-2.22-0.89c-1.58,1.25-3.1,2.59-4.51,4.03
	C48.23,140.77,47.26,154.59,46.69,158.1z"/>
<path d="M139.15,140.28c1.13-1.04,2.25-2.1,3.4-3.12c1-0.88,4.96-4.48,5.79-4.55c0.86-0.07,1.68,0.31,2.08,1.16
	c1.02,2.16,2.25,4.26,2.06,6.8c-0.19,2.56-0.31,5.12-0.52,7.68c-0.13,1.57-0.43,3.13-0.57,4.71c-0.08,0.93-0.07,1.88,0.01,2.82
	c0.08,0.95-0.02,5.05,0.34,6.59c0.15,0.64-1.71,2.39-2.32,2.38c-0.79,0-1.57-0.77-1.75-1.97c-0.11-0.73,0.02-1.51,0.13-2.25
	c0.14-0.99,0.4-1.96,0.55-2.95c0.49-3.3,0.98-6.59,0.53-9.94c-0.17-1.26-0.07-2.55-0.11-3.83c-0.04-1.38-0.07-2.77-0.17-4.14
	c-0.03-0.42-0.2-0.97-0.5-1.16c-0.22-0.14-0.84,0.11-1.13,0.37c-2.31,2.01-4.87,3.77-6.56,6.41c-0.21,0.32-0.46,0.67-0.78,0.86
	c-1.02,0.58-1.47,1.46-1.64,2.58c-0.06,0.36-0.36,0.68-0.51,1.03c-0.13,0.3,0.28,11.77-1.09,13.08c-0.71,0.67-1.45,0.81-2.29,0.7
	c-0.27-0.03-0.67-0.32-0.72-0.55c-0.19-0.97-0.44-1.98-0.34-2.94c0.33-3.18,1.69-12.01,1.88-13.26c0.14-0.98,0.16-1.99,0.28-2.98
	c0.25-2.1,0.53-4.2,0.8-6.31c0.04-0.28-0.02-0.63,0.13-0.82c1.08-1.42,1.13-3.1,1.34-4.76c0.05-0.41,0.31-0.85,0.59-1.18
	c0.75-0.91,1.58-0.76,1.98,0.33c0.39,1.08,0.4,2.09,0.02,3.25c-0.62,1.86-0.93,3.82-1.36,5.75
	C138.82,140.13,138.99,140.2,139.15,140.28z"/>
<path d="M115.7,74.5c0.93-0.87,2.09-1.59,2.74-2.64c0.91-1.44,2.38-1.98,3.66-2.79c0.91-0.58,2.05-0.38,2.88,0.43
	c1.73,1.67,3.02,3.67,3.12,6.09c0.1,2.57-0.21,5.15-0.31,7.73c-0.04,1.1,0.11,2.23-0.06,3.31c-0.4,2.69-0.94,5.36-1.42,8.05
	c-0.17,0.96-1.14,5.56-2.26,6.5c-0.67,0.56-1.68,0.22-1.95-0.79c-0.25-0.92-0.42-1.95-0.28-2.88c0.31-2.05,1-4.04,1.25-6.09
	c0.45-3.6,0.73-7.22,1-10.84c0.06-0.83-0.31-1.68-0.29-2.52c0.03-1.11-0.32-2.17-1.33-2.31c-0.81-0.12-2.1,0.3-2.56,0.93
	c-2.14,2.97-4.98,5.59-5.91,9.22c-0.69,2.72-1.74,5.44-1.28,8.39c0.22,1.4,0.17,2.84,0.17,4.27c0,1.31-1.6,3.36-2.91,3.64
	c-0.37,0.08-1.01-0.22-1.24-0.55c-1.19-1.72-1.12-3.66-0.76-5.62c0.33-1.78,0.62-3.58,0.95-5.36c0.12-0.63,1.65-11.11,2.02-12.78
	c0.52-2.32,0.78-4.71,1.15-7.07c0.14-0.89,0.18-1.81,0.41-2.67c0.28-1.07,1.13-1.47,2.28-1.23c1.37,0.29,1.89,0.9,1.66,2.16
	c-0.2,1.08-0.56,2.14-0.83,3.21c-0.16,0.66-0.27,1.34-0.41,2.01C115.38,74.37,115.54,74.43,115.7,74.5z"/>
<path d="M182.11,140.74c-0.6,1.59-1.16,3.23-1.98,4.71c-0.79,1.43-1.85,2.71-3.2,3.72c-0.31,0.23-4.28,3.69-5.05,4.19
	c-0.93,0.6-1.83,1.27-2.72,1.94c-1.46,1.1-1.58,1.4-1.1,2.54c0.75,1.75,2,2.74,3.36,2.43c0.96-0.22,1.92-0.6,2.75-1.12
	c1.17-0.72,2.25-1.61,3.33-2.48c0.33-0.26,0.55-0.67,0.78-1.03c0.21-0.33,0.29-0.85,0.57-0.99c0.55-0.28,1.33-0.63,1.8-0.43
	c0.68,0.28,0.39,1.03,0.04,1.59c-0.62,0.99-1.23,1.99-1.87,2.96c-0.14,0.21-3.31,3.84-4.73,4.49c-0.49,0.22-3.87,1.14-4.49,0.83
	c-0.91-0.46-1.81-0.95-2.66-1.51c-0.95-0.62-2.21-3.37-2.39-4.39c-0.29-1.63-0.09-3.2,0.11-4.82c0.3-2.37,1.18-4.52,2.35-6.52
	c2.09-3.57,3.82-7.36,6.59-10.51c0.73-0.83,5.22-4.26,6.81-3.96c1.4,0.27,2.37,1.66,2.5,3.34
	C182.94,136.21,182.53,139.62,182.11,140.74z M169.64,150.39c0.92-0.88,6.12-5.6,7.39-7.1c1.26-1.49,2.63-3.04,2.66-5.19
	c0.01-0.43-0.09-1.05-0.38-1.26c-0.3-0.21-0.94-0.17-1.33,0c-2.68,1.14-4.32,3.37-5.78,5.75
	C170.66,145.09,168.53,151.46,169.64,150.39z"/>
<path d="M98.38,95.77c-0.79,0.6-1.59,1.2-2.38,1.82c-0.77,0.61-1.52,1.23-2.26,1.86c-2.57,2.17-6.34,2.7-9.29,0.06
	c-3.21-2.86-3.82-6.33-4.06-10.09c-0.11-1.77,2.28-10.23,3.35-12.56c0.56-1.22,1.37-2.32,2.11-3.44c0.61-0.92,4.3-5.34,5.9-6.23
	c0.95-0.53,1.77-1.28,2.73-1.78c2.38-1.22,4.38,0.14,4.23,2.81c-0.01,0.13-0.03,0.26-0.07,0.39c-0.57,1.96-1.64,7.04-2,7.52
	c-1.28,1.7-2.59,3.38-3.88,5.07c-2.16,2.82-4.09,5.87-7.42,7.56c-0.33,0.17-0.72,0.74-0.67,1.06c0.37,2.47,0.3,5.18,2.72,6.77
	c0.7,0.46,1.68,0.73,2.51,0.7c1.77-0.07,3.46-0.5,4.68-2.01C96.3,93.16,96.56,93.2,98.38,95.77z M94.23,70.2
	c-4.92,2.31-6.56,6.88-8.31,11.39C89.2,78.15,94.04,75.86,94.23,70.2z"/>
<path d="M89,145.12c-0.43,2.37-0.68,4.88-1.36,7.27c-0.86,3.01-1.99,5.95-3.17,8.85c-0.6,1.49-1.33,3.05-2.38,4.22
	c-2.13,2.36-4.7,3.03-6.97,0.8c-0.24-0.23-1.86-4.25-1.94-6.24c-0.16-3.93-0.62-7.85,0.32-11.72c0.54-2.23,1.62-4.34,2.02-6.58
	c0.52-2.94,2.44-5.21,3.31-7.96c0.37-1.16,2.28-2.08,3.36-1.82c1.18,0.29,2.29,1.76,2.41,3c0.05,0.54,0.26,1.33,0.65,1.54
	c1.9,1.04,2.71,2.74,3.12,4.72C88.62,142.46,88.78,143.74,89,145.12z M85.5,144.57c-0.1-0.83-0.01-1.59-0.29-2.16
	c-0.38-0.74-0.97-1.75-1.62-1.86c-0.76-0.14-1.72,0.47-2.5,0.92c-0.43,0.25-0.72,0.82-0.94,1.31c-0.85,1.91-1.7,3.83-2.43,5.79
	c-0.27,0.74-0.23,1.6-0.32,2.4c-0.07,0.6-0.44,5.56-0.03,7.42c0.1,0.46,0.09,2.53,0.73,2.67c0.47,0.1,1.11,0.03,1.48-0.24
	c0.52-0.38,1-0.96,1.24-1.56c1.22-3.03,2.47-6.05,3.49-9.15C84.92,148.28,85.14,146.32,85.5,144.57z"/>
<path d="M120.45,145.08c-1.27,3.58-2.37,7.23-3.84,10.72c-0.91,2.16-2.29,4.15-3.66,6.07c-0.91,1.28-2.54,1.56-4.01,1.58
	c-0.67,0.01-1.5-0.57-2-1.12c-1.84-2.02-2.65-4.35-2.61-7.19c0.03-1.9-0.62-3.82-0.31-5.8c0.43-2.81,0.56-5.7,1.24-8.44
	c0.42-1.7,1.6-3.22,2.46-4.81c0.5-0.93,0.95-1.9,1.57-2.74c1.18-1.61,2.79-1.13,4.25-0.55c0.84,0.33,1.33,0.43,2.12-0.22
	c1.05-0.87,3.41,0.17,3.98,1.7C120.35,136.21,120.89,143.83,120.45,145.08z M115.71,135.93c-1.18,1.72-3.32,1.93-4.66,3.73
	c-2.09,2.8-3.18,5.62-2.97,9c0.08,1.18-0.46,3.83-0.25,4.43c0.41,1.22,0.76,2.45,1.1,3.69c0.35,1.26,1.23,1.54,2.21,0.64
	c0.34-0.31,0.6-0.73,0.84-1.14c0.86-1.46,1.71-2.92,2.54-4.39c0.29-0.51,0.55-1.05,0.74-1.6c0.62-1.82,2.36-9.55,2.33-11.27
	C117.58,137.7,117.23,136.62,115.71,135.93z"/>
<path d="M21.2,156.51c0.86-2.51,0.07-4.84-0.77-7.11c-0.59-1.59-0.74-3.36-1.86-4.74c-0.08-0.1-0.15-0.27-0.11-0.38
	c0.96-2.97,1.49-6.18,4.22-8.22c1.54-1.15,2.67-3.01,4.88-3c0.78,0,1.75-0.53,2.33,0.62c0.57,1.14,1.1,2.3,0.26,3.42
	c-0.45,0.59-1.25,1-1.97,1.29c-1.49,0.58-2.69,1.36-3.67,2.72c-1.05,1.46-1.1,2.91-0.48,4.33c1.69,3.86,2.3,7.83,1.2,11.87
	c-0.62,2.28-1.38,4.59-2.83,6.58c-0.53,0.73-0.8,1.67-1.09,2.55c-0.33,0.99-1.98,1.92-3.12,1.67c-1.16-0.26-1.99-1.29-1.4-2.42
	C18.07,163.27,21.03,157.03,21.2,156.51z"/>
<path d="M200.93,136.08c-0.1,2.84-0.17,4.9-0.24,6.97c0.3,0.15,0.6,0.3,0.9,0.44c0.83-0.75,2.61-2.31,3.41-3.1
	c3.92-3.91,1.8-1.66,5.87-5.42c2.93-2.71,4.91-2.63,5.76-2.6c2.82,0.11-0.11,2.82-3.05,5.53s-2.93,2.71-5.87,5.42
	c-7.48,6.91-7.49,10.45-7.42,9.37c-0.65,1.04-1.22,9.25-1.94,10.25c-0.82,1.14-1.76,2.6-3.23,1.79c-1.39-0.77,0.29-13.47,0.95-17.43
	c0.51-3.05,1.38-6.05,2.14-9.06C199.17,134.45,198.35,133.91,200.93,136.08z"/>
</svg>
